<?xml version="1.0" encoding="utf-8"?>
<!-- Generator: Adobe Illustrator 16.0.0, SVG Export Plug-In . SVG Version: 6.00 Build 0)  -->
<!DOCTYPE svg PUBLIC "-//W3C//DTD SVG 1.1//EN" "http://www.w3.org/Graphics/SVG/1.1/DTD/svg11.dtd">
<svg version="1.1" id="Capa_1" xmlns="http://www.w3.org/2000/svg" xmlns:xlink="http://www.w3.org/1999/xlink" x="0px" y="0px"
	 width="512px" height="512px" viewBox="0 0 512 512" enable-background="new 0 0 512 512" xml:space="preserve">
<g>
	<ellipse fill="#C51B25" cx="256.001" cy="488.347" rx="67.957" ry="20.809"/>
	<g>
		<path fill="#8C4714" d="M64.114,16.442h56.644v395.93H64.114V16.442z"/>
		<path fill="#B5672D" d="M120.758,262.775v158.888h270.483V262.775H120.758z M256.001,369.639
			c-19.364,0-35.058-15.693-35.058-35.059c0-19.355,15.694-35.059,35.058-35.059s35.058,15.703,35.058,35.059
			C291.059,353.945,275.365,369.639,256.001,369.639z"/>
		<path fill="#9E5118" d="M120.758,390.656h270.483v16.145H120.758V390.656z"/>
		<path fill="#8C4714" d="M391.241,25.73h56.646v395.93h-56.646V25.73z"/>
		<path fill="#CC814A" d="M470.721,479.881H41.283c-1.941,0-3.513-3.271-3.513-7.308v-58.465c0-4.037,1.572-7.308,3.513-7.308
			h429.438c1.941,0,3.511,3.271,3.511,7.308v58.465C474.231,476.61,472.662,479.881,470.721,479.881L470.721,479.881z"/>
		<path fill="#CC814A" d="M470.721,40.593H41.283c-1.941,0-3.513-1.572-3.513-3.513V8.978c0-1.941,1.572-3.513,3.513-3.513h429.438
			c1.941,0,3.511,1.572,3.511,3.513V37.08C474.231,39.021,472.662,40.593,470.721,40.593z"/>
		<path fill="#B5672D" d="M447.888,5.465v35.128h22.833c1.941,0,3.511-1.572,3.511-3.513V8.978c0-1.941-1.569-3.513-3.511-3.513
			H447.888z"/>
		<path fill="#9E5118" d="M470.721,479.881H41.283c-1.941,0-3.513-0.816-3.513-1.827v-14.616c0-1.01,1.572-1.826,3.513-1.826
			h429.438c1.941,0,3.511,0.816,3.511,1.826v14.616C474.231,479.064,472.662,479.881,470.721,479.881L470.721,479.881z"/>
		<g>
			<path fill="#9E5118" d="M220.638,334.372c0-2.862,0.375-5.63,1.012-8.297H120.76v16.144h100.774
				C220.964,339.691,220.638,337.072,220.638,334.372z"/>
			<path fill="#9E5118" d="M290.802,326.075c0.636,2.667,1.011,5.435,1.011,8.297c0,2.7-0.324,5.319-0.896,7.847h100.325v-16.144
				H290.802z"/>
		</g>
		<path fill="#6192AB" d="M120.756,48.31v66.143l270.485,49.776V48.31H120.756z M256.001,83.401
			c-5.952,0-10.777-4.824-10.777-10.777c0-5.95,4.825-10.777,10.777-10.777s10.776,4.827,10.776,10.777
			C266.777,78.577,261.953,83.401,256.001,83.401z"/>
		<path fill="#4E829C" d="M120.76,118.157l270.481,49.776v-31.615L120.76,96.898V118.157z"/>
		<rect x="250.992" y="40.593" fill="#FFA721" width="10.014" height="30.845"/>
		<path fill="#C51B25" d="M256.003,368.729c-17.603,0-32.131-12.452-34.636-28.666v78.564h69.265v-78.55
			C288.125,356.286,273.602,368.729,256.003,368.729z"/>
		<rect x="221.368" y="398.729" fill="#C51B25" width="69.265" height="81.152"/>
		<g>
			<path fill="#FF9900" d="M135.814,447.218l-9.792,9.788c-3.061-3.057-8.039-3.057-11.097,0l-9.79-9.788
				C113.591,438.756,127.354,438.756,135.814,447.218z"/>
			<path fill="#FED2A4" d="M233.557,443.341c0,24.181-19.67,43.851-43.846,43.851c-24.179,0-43.851-19.67-43.851-43.851
				c0-24.177,19.672-43.851,43.851-43.851C213.887,399.49,233.557,419.164,233.557,443.341z"/>
			<path fill="#FFBD86" d="M145.86,443.341h87.697c0-24.177-19.67-43.851-43.846-43.851
				C165.532,399.49,145.86,419.164,145.86,443.341z"/>
			<path fill="#3333CC" d="M181.182,411.25c0,0.871-0.055,1.743-0.168,2.616l0,0l-4.437,33.696
				c-0.268,2.049-0.404,4.135-0.404,6.197v14.254c0,15.155-12.328,27.487-27.483,27.487c-15.155,0-27.485-12.332-27.485-27.487
				v-3.587c0-10.328,2.338-20.727,6.759-30.062l15.02-31.705c3.303-6.974,10.423-11.478,18.133-11.478
				c5.778,0,11.278,2.492,15.09,6.836C179.433,401.702,181.182,406.413,181.182,411.25z"/>
			<path fill="#000066" d="M142.983,402.66l-15.02,31.705c-1.373,2.903-2.543,5.904-3.511,8.976h52.685l3.877-29.475l0,0
				c0.114-0.873,0.168-1.747,0.168-2.616c0-4.837-1.75-9.548-4.976-13.231c-3.812-4.344-9.312-6.836-15.09-6.836
				C153.406,391.183,146.286,395.687,142.983,402.66z"/>
		</g>
	</g>
</g>
</svg>
